<?xml version="1.0" encoding="UTF-8"?>
<svg xmlns="http://www.w3.org/2000/svg" version="1.1" viewBox="0 0 1125.3 467">
  <defs>
    <style>
      .cls-1, .cls-2 {
        fill: #8c98a4;
      }

      .cls-2 {
        fill-rule: evenodd;
      }
    </style>
  </defs>
  <!-- Generator: Adobe Illustrator 28.6.0, SVG Export Plug-In . SVG Version: 1.2.0 Build 709)  -->
  <g>
    <g id="Layer_1">
      <g id="Layer_1-2" data-name="Layer_1">
        <g>
          <path class="cls-2" d="M6.5,37.9l13.7,14.7c.3.3.7.6,1.1.7.4.2.8.3,1.3.3h64.7c.3,0,.6,0,.9-.2s.5-.4.6-.7.2-.6,0-.9c0-.3-.2-.6-.4-.8l-13.7-14.7c-.3-.3-.7-.6-1.1-.7-.4-.2-.8-.3-1.3-.3H7.6c-.3,0-.6,0-.9.2s-.5.4-.6.8v.9c0,.3,0,.5.3.8h0Z"/>
          <path class="cls-2" d="M6.8,25.6c.3.2.6.2.9.2h64.7c.4,0,.9,0,1.3-.2s.8-.4,1.1-.8l13.7-14.5c.2-.2.4-.5.4-.8v-.9c0-.3-.3-.5-.6-.7-.3-.2-.6-.3-1-.2H22.5c-.4,0-.9,0-1.3.3-.4.2-.8.4-1.1.7l-13.7,14.5c-.2.2-.4.5-.4.8s0,.6,0,.9.3.6.6.7h0Z"/>
          <path class="cls-2" d="M6.8,80.9c.3.2.6.2.9.2h64.7c.4,0,.9,0,1.3-.3.4-.2.8-.4,1.1-.7l13.7-14.5c.2-.2.4-.5.4-.8v-.9c0-.3-.3-.5-.6-.7-.3-.2-.6-.3-.9-.2H22.5c-.4,0-.9,0-1.3.2s-.8.4-1,.8l-13.7,14.5c-.2.2-.3.5-.4.8v.9c.2.3.4.5.7.7h0Z"/>
          <path class="cls-2" d="M124.1,46.8c1.1,1.1,2.3,1.9,3.7,2.5,1.4.6,2.9.9,4.4.9h34.6v11.4h-45.2v11.4h45.2c3,0,5.9-1.2,8.1-3.3,2.1-2.1,3.3-5,3.4-8v-11.6c0-3-1.2-5.9-3.3-8s-5-3.3-8-3.3h-34.6v-11.4h43.6v-11.4h-43.7c-1.5,0-3,.3-4.4.9s-2.6,1.4-3.7,2.5-1.9,2.3-2.5,3.7c-.6,1.4-.9,2.8-.9,4.3v11.6c0,1.5.3,3,.9,4.3.6,1.4,1.4,2.6,2.5,3.7h0v-.2Z"/>
          <path class="cls-2" d="M197.3,27.3h34.5v34.2h-34.5V27.3h0ZM197.3,73h34.7c3,0,5.9-1.2,8.1-3.3,2.1-2.1,3.3-5,3.4-8V27.2c0-1.5-.3-3-.9-4.3-.6-1.4-1.4-2.6-2.5-3.7s-2.3-1.9-3.7-2.5-2.9-.8-4.4-.8h-34.6c-3,0-5.9,1.2-8.1,3.3-2.1,2.1-3.3,5-3.4,8v34.4c0,3,1.2,5.9,3.4,8,2.1,2.1,5,3.3,8.1,3.3h-.1Z"/>
          <path class="cls-2" d="M318.6,27.3h33.8v15.5h-33.7v-15.5h0ZM318.6,54.2h33.8v18.8h11.5V27.2c0-1.5-.3-3-.9-4.4s-1.4-2.6-2.5-3.7-2.3-1.9-3.7-2.5c-1.4-.6-2.9-.9-4.4-.8h-33.9c-3,0-5.9,1.2-8,3.4-2.1,2.1-3.3,5-3.3,8v45.7h11.5v-18.8h-.1Z"/>
          <path class="cls-2" d="M452.6,27.3h33.7v15.5h-33.7v-15.5h0ZM452.6,54.2h33.7v18.8h11.5V27.2c0-1.5-.3-3-.9-4.3-1.2-2.8-3.4-5-6.2-6.1-1.4-.6-2.9-.9-4.4-.9h-33.8c-3,0-5.9,1.2-8.1,3.3-2.1,2.1-3.3,5-3.4,8v45.8h11.4v-18.8h.2Z"/>
          <path class="cls-2" d="M385.6,27.3h4.6l16.4,40.9c.6,1.4,1.6,2.6,2.8,3.5,1.3.8,2.8,1.3,4.3,1.3h10.3c1,0,2-.2,2.9-.6,1.4-.6,2.6-1.5,3.4-2.8.8-1.2,1.3-2.7,1.3-4.2V15.9h-11.5v45.7h-4.6l-16.4-40.9c-.6-1.4-1.6-2.6-2.8-3.5-1.3-.9-2.8-1.3-4.3-1.3h-10.3c-1,0-2,.2-2.9.6s-1.8.9-2.5,1.7c-.7.7-1.3,1.5-1.6,2.5-.4.9-.6,1.9-.6,2.9v49.5h11.5V27.3h0Z"/>
          <path class="cls-2" d="M264.9,15.9h-11.5v45.8c0,3,1.2,5.9,3.3,8,2.1,2.1,5,3.3,8,3.3h34.6v-11.4h-34.5V15.9h.1Z"/>
          <path class="cls-2" d="M152.6,211.7v3.7c0,14.4-17.9,14.4-17.9,14.4H43.2v-32l92,.4c17.8,0,17.4,13.6,17.4,13.6h0ZM43.2,136.3l82.8.4c17.8,0,17.4,13.6,17.4,13.6v3.7c0,14.4-17.9,14.4-17.9,14.4H43.2v-32h0ZM170.8,177.8s11.9-11.4,11.9-26.9v-9s.8-33.9-47.8-33.9H3.9v151.7h144.9s43.2,0,43.2-41.3v-6s-1.1-23.9-21.2-34.7h0Z"/>
          <path class="cls-2" d="M342.7,161.4v5.8c0,21-25.7,19.2-25.7,19.2h-73.1v-45.2l73.4.7c26.4,0,25.3,19.5,25.3,19.5h.1ZM327.2,108.6l-122.3-.7v152.7h38.7v-40.5h64l22.8,40.2h47l-28.2-45.6s32.6-9,32.6-47.8v-7.6s-1.4-50.7-54.6-50.7h0Z"/>
          <path class="cls-2" d="M663.3,199h-57.9l57.9-63v63h0ZM532,229.1h-98.1v-30.8h103.9v-27.9h-103.9v-31.1h120.9v-31.5h-159.6v152.3h162.5l27.5-31.5h77.8v31.1h40.2V108.2h-61.2l-110,120.9h0Z"/>
          <polygon class="cls-2" points="757.8 184.8 856.2 261.3 916.3 261.3 814.6 184.2 914.8 108.2 856.9 108.2 757.8 184.3 757.8 107.5 718.7 107.8 718.7 259.8 757.8 259.8 757.8 184.8"/>
          <path class="cls-2" d="M316.3,387.2l-94.4.4v-77.1h86.8s49.6,0,49.6,32.9v9.4s.7,34.4-42,34.4h0ZM315.2,291.3l-113.3.7v164.3h19.2v-48.8h90.5s64.4,4.7,68-52.5v-9.4s2.2-52.8-64.4-54.3h0Z"/>
          <path class="cls-2" d="M583.4,379.2s-.4,62.2-70.9,62.2h-11.6s-75.6,0-75.6-63.3v-9s-.7-61.9,77.1-61.9h8.7s72.4-2.9,72.4,64.8v7.2h0ZM604.3,367.3c-5.1-83.6-94.4-80-94.4-80h-8c-94.1,0-97.7,82.9-97.7,82.9v7.6c8,92.3,101.7,82.5,101.7,82.5h12.3c91.2-7.2,86.1-83.9,86.1-83.9v-9h0Z"/>
          <rect class="cls-1" x="643.8" y="292" width="19.9" height="164.3"/>
          <polygon class="cls-2" points="898.2 291.3 877.9 291.3 877.9 431.7 732.8 290.9 709.3 290.9 709.3 456.3 729.9 456.7 729.9 315.9 874.7 455.9 898.2 455.9 898.2 291.3"/>
          <polygon class="cls-2" points="933.6 291.7 933.6 310.8 1017.6 310.8 1017.6 456.3 1038.2 456.3 1038.2 310.5 1121.4 310.5 1121.4 291.7 933.6 291.7"/>
        </g>
      </g>
    </g>
    <metadata>
      <sfw xmlns="http://ns.adobe.com/SaveForWeb/1.0/">
        <slices/>
        <sliceSourceBounds x="3.9" y="6.4" width="1117.5" height="452.94" bottomLeftOrigin="true"/>
        <optimizationSettings>
          <targetSettings fileFormat="PNG24Format" targetSettingsID="0">
            <PNG24Format filtered="false" interlaced="false" matteColor="#FFFFFF" noMatteColor="false" transparency="true"/>
          </targetSettings>
        </optimizationSettings>
      </sfw>
    </metadata>
  </g>
</svg>