<?xml version="1.0" encoding="UTF-8"?>
<svg xmlns="http://www.w3.org/2000/svg" version="1.1" viewBox="0 0 2255.9 439.9">
  <defs>
    <style>
      .cls-1, .cls-2 {
        fill: #8c98a4;
      }

      .cls-2 {
        fill-rule: evenodd;
      }
    </style>
  </defs>
  <!-- Generator: Adobe Illustrator 28.6.0, SVG Export Plug-In . SVG Version: 1.2.0 Build 709)  -->
  <g>
    <g id="Layer_1">
      <g>
        <path class="cls-2" d="M0,439.9h504.4V0H0v36.3c39.1,0,70.9,31.7,70.9,70.9v225.5c0,39.1-31.7,70.9-70.9,70.9v36.3ZM143.7,36.3c-19.6,0-35.4,15.9-35.4,35.4v296.3c0,19.6,15.9,35.4,35.4,35.4s35.4-15.9,35.4-35.4V71.8c0-19.6-15.9-35.4-35.4-35.4ZM216.5,71.8c0-19.6,15.9-35.4,35.4-35.4s35.4,15.9,35.4,35.4v296.3c0,19.6-15.9,35.4-35.4,35.4s-35.4-15.9-35.4-35.4V71.8ZM360.3,36.3c-19.6,0-35.4,15.9-35.4,35.4v296.3c0,19.6,15.9,35.4,35.4,35.4s35.4-15.9,35.4-35.4V71.8c0-19.6-15.9-35.4-35.4-35.4ZM433.5,107.2c0-39.1,31.7-70.9,70.9-70.9v367.2c-39.1,0-70.9-31.7-70.9-70.9V107.2Z"/>
        <path class="cls-1" d="M2079.8,439.9c-28.8,0-53.8-7.1-74.7-21.3-20.9-14.2-37.1-33.2-48.6-56.9-11.1-24.1-16.6-50.6-16.6-79.4s6.3-56.9,19-80.6c13-24.1,31.4-43.1,55.1-56.9,24.1-14.2,52.8-21.3,86-21.3s60.7,7.1,83.6,21.3c23.3,13.8,41.1,32.8,53.4,56.9,12.6,23.7,19,50.2,19,79.4v151.8h-68.2v-56.3h-1.2c-5.9,11.1-13.6,21.5-23.1,31.4-9.5,9.5-21.1,17.2-35,23.1-13.8,5.9-30,8.9-48.6,8.9ZM2098.2,381.8c17.8,0,33.2-4.3,46.2-13,13.4-9.1,23.9-21.1,31.4-36.2,7.5-15.4,11.1-32.6,10.7-51.6,0-19-3.6-35.8-10.7-50.4-7.1-15-17.2-26.9-30.2-35.6-13-9.1-28.7-13.6-46.8-13.6s-35.2,4.5-48.6,13.6c-13.4,8.7-23.7,20.6-30.8,35.6-7.1,15-10.7,32-10.7,51s3.6,35.6,10.7,51c7.1,15,17.2,27.1,30.2,36.2,13.4,8.7,29.6,13,48.6,13Z"/>
        <path class="cls-1" d="M1400,432.7v-180.8c0-23.3,5.5-44.7,16.6-64,11.1-19.8,27.1-35.4,48-46.8,20.9-11.9,46-17.8,75.3-17.8s27.9,1.8,40.9,5.3c13,3.6,25.1,9.3,36.2,17.2,11.5,7.5,21.1,17,29,28.5h.6c7.9-11.5,17.4-20.9,28.5-28.5,11.5-7.9,23.7-13.6,36.8-17.2,13.4-3.6,27.3-5.3,41.5-5.3,29.6,0,54.7,5.9,75.3,17.8,20.9,11.5,36.9,27.1,48,46.8,11.1,19.4,16.6,40.7,16.6,64v180.8h-67.6v-180.8c0-13-3.4-24.9-10.1-35.6-6.3-10.7-14.8-19.2-25.5-25.5s-22.9-9.5-36.8-9.5-25.7,3.2-36.8,9.5c-11.1,6.3-20,14.8-26.7,25.5-6.3,10.7-9.5,22.5-9.5,35.6v180.8h-67.6v-180.8c0-13-3.4-24.9-10.1-35.6-6.7-10.7-15.6-19.2-26.7-25.5-10.7-6.3-22.7-9.5-36.2-9.5s-25.7,3.2-36.8,9.5c-10.7,6.3-19.4,14.8-26.1,25.5-6.3,10.7-9.5,22.5-9.5,35.6v180.8h-67.6Z"/>
        <path class="cls-1" d="M1211.7,432.7v-216.4c0-26.9,7.5-47.8,22.5-62.8,15.4-15.4,36.6-23.1,63.4-23.1h72.9v58.1h-60.5c-9.5,0-17,2.8-22.5,8.3-5.1,5.5-7.7,13-7.7,22.5v213.4h-68.2Z"/>
        <path class="cls-1" d="M1006.5,439.8c-31.2,0-58.9-6.9-83-20.7-24.1-14.2-43.3-33.2-57.5-56.9-13.8-24.1-20.7-51-20.7-80.6s6.9-56.3,20.7-80c14.2-24.1,33.4-43.1,57.5-56.9,24.1-14.2,51.8-21.3,83-21.3s58.3,7.1,82.4,21.3c24.1,13.8,43.1,32.6,56.9,56.3,14.2,23.7,21.3,50.6,21.3,80.6s-7.1,56.5-21.3,80.6c-13.8,23.7-32.8,42.7-56.9,56.9-24.1,13.8-51.6,20.7-82.4,20.7ZM1006.5,381.8c18.6,0,34.8-4.3,48.6-13,13.8-9.1,24.5-21.1,32-36.2,7.5-15,11.3-32,11.3-51s-3.8-35.4-11.3-50.4c-7.5-15.4-18.2-27.5-32-36.2-13.8-9.1-30-13.6-48.6-13.6s-35.4,4.5-49.2,13.6c-13.4,8.7-24.1,20.6-32,35.6-7.5,15-11.3,32-11.3,51s3.7,35.6,11.3,51c7.9,15,18.6,27.1,32,36.2,13.8,8.7,30.2,13,49.2,13Z"/>
        <path class="cls-1" d="M685,432.7v-244.2h-52.8v-58.1h52.8v-44.5c0-26.9,7.5-47.8,22.5-62.8,15.4-15.4,36.6-23.1,63.4-23.1h80.6v58.1h-68.2c-9.1,0-16.4,2.8-21.9,8.3-5.5,5.5-8.3,13-8.3,22.5v41.5h86v58.1h-86v244.2h-68.2Z"/>
      </g>
    </g>
    <metadata>
      <sfw xmlns="http://ns.adobe.com/SaveForWeb/1.0/">
        <slices/>
        <sliceSourceBounds x="21.27" y="11.88" width="2255.86" height="439.86" bottomLeftOrigin="true"/>
        <optimizationSettings>
          <targetSettings fileFormat="PNG24Format" targetSettingsID="0">
            <PNG24Format filtered="false" interlaced="false" matteColor="#FFFFFF" noMatteColor="false" transparency="true"/>
          </targetSettings>
        </optimizationSettings>
      </sfw>
    </metadata>
  </g>
</svg>