<?xml version="1.0" encoding="UTF-8"?>
<svg xmlns="http://www.w3.org/2000/svg" version="1.1" viewBox="0 0 687.9 193.1">
  <defs>
    <style>
      .cls-1 {
        fill: #8c98a4;
      }
    </style>
  </defs>
  <!-- Generator: Adobe Illustrator 28.6.0, SVG Export Plug-In . SVG Version: 1.2.0 Build 709)  -->
  <g>
    <g id="Layer_1">
      <g id="layer1">
        <g id="g886">
          <path id="path839" class="cls-1" d="M201.7,0H4.6c-1.2,0-2.4.5-3.2,1.3-.9.8-1.3,1.9-1.3,3v184.5c0,1.1.5,2.2,1.3,3,.9.8,2,1.3,3.2,1.3h197.2c1.2,0,2.4-.5,3.2-1.3.9-.8,1.3-1.9,1.3-3V4.3c0-1.1-.5-2.2-1.3-3-.9-.8-2-1.3-3.2-1.3ZM137.6,124.4c0,1.1-.5,2.2-1.3,3-.9.8-2,1.3-3.2,1.3h-59.6c-1.2,0-2.4-.5-3.2-1.3-.9-.8-1.3-1.9-1.3-3v-55.8c0-1.1.5-2.2,1.3-3,.9-.8,2-1.3,3.2-1.3h59.6c1.2,0,2.4.5,3.2,1.3.9.8,1.3,1.9,1.3,3v55.8Z"/>
          <path id="path841" class="cls-1" d="M614.5,64.4h-59.6c-2.5,0-4.6,1.9-4.6,4.3v55.8c0,2.4,2.1,4.3,4.6,4.3h59.6c2.5,0,4.6-1.9,4.6-4.3v-55.8c0-2.4-2.1-4.3-4.6-4.3h0Z"/>
          <path id="path843" class="cls-1" d="M545.7,0h-59.6c-2.5,0-4.6,1.9-4.6,4.3v55.8c0,2.4,2.1,4.3,4.6,4.3h59.6c2.5,0,4.6-1.9,4.6-4.3V4.3c0-2.4-2.1-4.3-4.6-4.3Z"/>
          <path id="path845" class="cls-1" d="M683.3,0h-59.6c-2.5,0-4.6,1.9-4.6,4.3v55.8c0,2.4,2.1,4.3,4.6,4.3h59.6c2.5,0,4.6-1.9,4.6-4.3V4.3c0-2.4-2.1-4.3-4.6-4.3Z"/>
          <path id="path847" class="cls-1" d="M545.7,128.7h-59.6c-2.5,0-4.6,1.9-4.6,4.3v55.8c0,2.4,2.1,4.3,4.6,4.3h59.6c2.5,0,4.6-1.9,4.6-4.3v-55.8c0-2.4-2.1-4.3-4.6-4.3Z"/>
          <path id="path849" class="cls-1" d="M683.3,128.7h-59.6c-2.5,0-4.6,1.9-4.6,4.3v55.8c0,2.4,2.1,4.3,4.6,4.3h59.6c2.5,0,4.6-1.9,4.6-4.3v-55.8c0-2.4-2.1-4.3-4.6-4.3Z"/>
          <path id="path851" class="cls-1" d="M442.5,0h-59.6c-2.5,0-4.6,1.9-4.6,4.3v55.8c0,2.4,2.1,4.3,4.6,4.3h59.6c2.5,0,4.6-1.9,4.6-4.3V4.3C447.1,1.9,445,0,442.5,0Z"/>
          <path id="path853" class="cls-1" d="M442.5,128.7h-59.6c-2.5,0-4.6,1.9-4.6,4.3v55.8c0,2.4,2.1,4.3,4.6,4.3h59.6c2.5,0,4.6-1.9,4.6-4.3v-55.8c0-2.4-2.1-4.3-4.6-4.3Z"/>
          <path id="path855" class="cls-1" d="M378.3,68.6c0-1.1-.5-2.2-1.3-3-.9-.8-2-1.3-3.2-1.3h-64.2V4.3c0-1.1-.5-2.2-1.3-3-.9-.8-2-1.3-3.2-1.3h-59.6c-1.2,0-2.4.5-3.2,1.3-.9.8-1.3,1.9-1.3,3v184.4c0,1.1.5,2.2,1.3,3,.9.8,2,1.3,3.2,1.3h59.6c1.2,0,2.4-.5,3.2-1.3s1.3-1.9,1.3-3v-60h64.2c1.2,0,2.4-.5,3.2-1.3.9-.8,1.3-1.9,1.3-3v-55.8Z"/>
        </g>
      </g>
    </g>
    <metadata>
      <sfw xmlns="http://ns.adobe.com/SaveForWeb/1.0/">
        <slices/>
        <sliceSourceBounds x="73.88" y="154.72" width="687.89" height="193.07" bottomLeftOrigin="true"/>
        <optimizationSettings>
          <targetSettings fileFormat="PNG24Format" targetSettingsID="0">
            <PNG24Format filtered="false" interlaced="false" matteColor="#FFFFFF" noMatteColor="false" transparency="true"/>
          </targetSettings>
        </optimizationSettings>
      </sfw>
    </metadata>
  </g>
</svg>