<?xml version="1.0" encoding="UTF-8"?>
<svg xmlns="http://www.w3.org/2000/svg" xmlns:xlink="http://www.w3.org/1999/xlink" version="1.1" viewBox="0 0 1572 255.7">
  <defs>
    <style>
      .cls-1 {
        fill: none;
      }

      .cls-2 {
        fill: #8c98a4;
      }

      .cls-3 {
        clip-path: url(#clippath);
      }
    </style>
    <clipPath id="clippath">
      <rect class="cls-1" x="0" y="0" width="102.7" height="202.6"/>
    </clipPath>
  </defs>
  <!-- Generator: Adobe Illustrator 28.6.0, SVG Export Plug-In . SVG Version: 1.2.0 Build 709)  -->
  <g>
    <g id="Layer_1">
      <g>
        <g class="cls-3">
          <path class="cls-2" d="M102.7,101.3C102.7,45.4,56.7,0,0,0v202.6c56.8,0,102.7-45.4,102.7-101.3h0Z"/>
        </g>
        <g>
          <path class="cls-2" d="M218.6,180.1v43.8c0,6.7.7,11.6,2.1,14.7s3.9,5.2,7.5,6.2,9.4,1.6,17.2,1.8v5.5c-20.6-.5-36-.8-46-.8s-19,.2-31.7.5l-8,.2v-5c5.5-.3,9.6-1,12.2-2s4.4-2.9,5.3-5.8c.9-2.8,1.4-7.5,1.4-13.8v-124.8c0-6.4-.5-11-1.4-13.8-.9-2.9-2.7-4.8-5.3-5.8s-6.7-1.7-12.2-2v-5c8.6.5,21.3.8,38.2.8l27.9-.2c3.3-.2,7.2-.2,11.6-.2,22.7,0,39.9,4.5,51.8,13.5s17.9,21,17.9,36.1-2.4,18.1-7.1,26.5c-4.7,8.5-12.6,15.6-23.8,21.3s-26,8.5-44.4,8.5h-13.2v-.2h0ZM234.2,79c-4.5,0-7.8.6-9.9,1.8s-3.6,3.3-4.4,6.3-1.2,7.5-1.2,13.6v74.5h10.8c13.6,0,23-4.4,28.2-13.1,5.2-8.7,7.8-20.5,7.8-35.5s-2.4-28.3-7.2-36c-4.8-7.8-12.8-11.6-24.1-11.6Z"/>
          <path class="cls-2" d="M398.5,118.5c7.6,0,13.3,2.3,17.1,6.8,3.9,4.5,5.8,10,5.8,16.4s-1.8,11.3-5.4,15.2c-3.6,3.9-8.3,5.9-14.2,5.9s-10.2-1.5-13.6-4.4c-3.3-2.9-5-6.8-5-11.7,0-8.1,3.7-14.6,11.1-19.6-.7-.2-1.7-.2-3-.2s-3,.2-4,.5c-6.4,1-11.8,4.9-16.2,11.6-4.4,6.7-6.7,13.6-6.7,20.6v66.7c0,7.7,1.9,13.1,5.6,16.1,3.8,3,9.8,4.5,18,4.5v5.3c-2.3,0-4.3,0-5.8-.2-17.1-.5-28.5-.8-34.2-.8s-14.8.2-31,.8c-1.3.2-3,.2-5,.2v-5.3c6,0,10.2-1.3,12.6-3.9,2.3-2.6,3.5-7.3,3.5-14.2v-79.4c0-7.7-1.2-13.3-3.5-16.9-2.3-3.5-6.5-5.3-12.6-5.3v-5.2c5.4.5,10.6.8,15.6.8,14.9,0,27.2-1.2,36.7-3.5v23.4c3.2-7.2,7.8-13.1,13.8-17.5,6-4.5,12.8-6.7,20.4-6.7h0Z"/>
          <path class="cls-2" d="M481.8,118.5c19.3,0,34.4,5.5,45.3,16.5s16.4,28.4,16.4,52.2-5.5,41.2-16.4,52.1-26,16.4-45.3,16.4-34.2-5.4-45.2-16.4c-11-10.9-16.5-28.3-16.5-52.1s5.5-41.2,16.5-52.2,26-16.5,45.2-16.5h0ZM481.8,123.5c-7.2,0-13,5.2-17.2,15.7-4.3,10.5-6.4,26.4-6.4,47.9s2.1,37.4,6.4,47.8c4.3,10.4,10,15.6,17.2,15.6s13.2-5.2,17.4-15.5c4.2-10.3,6.3-26.3,6.3-47.9s-2.1-37.7-6.4-48c-4.4-10.4-10.1-15.6-17.3-15.6h0Z"/>
          <path class="cls-2" d="M612.3,118.5c19.3,0,34.4,5.5,45.3,16.5,10.9,11,16.4,28.4,16.4,52.2s-5.5,41.2-16.4,52.1-26,16.4-45.3,16.4-34.2-5.4-45.2-16.4c-11-10.9-16.5-28.3-16.5-52.1s5.5-41.2,16.5-52.2c11.1-11,26.1-16.5,45.2-16.5ZM612.3,123.5c-7.2,0-13,5.2-17.2,15.7-4.3,10.5-6.4,26.4-6.4,47.9s2.1,37.4,6.4,47.8c4.3,10.4,10,15.6,17.2,15.6s13.2-5.2,17.4-15.5,6.3-26.3,6.3-47.9-2.1-37.7-6.4-48c-4.3-10.4-10-15.6-17.3-15.6h0Z"/>
          <path class="cls-2" d="M740.2,54.8c10.4-.3,19.5,2.2,27.2,7.4,2.6,1.9,4.8,4.5,6.5,7.7,1.7,3.2,2.6,6.8,2.7,10.8.2,4.7-1.4,8.9-4.6,12.4s-7.4,5.3-12.6,5.5c-5.7.2-10.3-1.3-14-4.4-3.6-3.1-5.5-7.4-5.7-12.9-.1-4.4,1-8.2,3.4-11.7,2.4-3.5,6-5.9,10.9-7.5-.5-1-1.7-1.8-3.2-2.4-1.6-.6-3.6-.9-5.9-.8-6.4.2-10.8,2.5-13.4,6.9-1.7,2.6-2.9,6.3-3.5,11.2-.5,4.9-.6,12.2-.3,21.9l.7,23.2,26.9-.9.2,5-26.9.9,3.1,98.8c.2,7.7,2.4,13,6.4,15.9s10,4.2,17.8,3.9l.2,5.3h-7c-18.6.1-30.7.2-36.2.4-5,.2-15.9.8-32.7,2l-.2-5.3c6-.2,10.2-1.6,12.5-4.3,2.2-2.7,3.3-7.4,3-14.3l-3.2-101.4-17.1.5-.2-5,17.1-.5c-.5-14.6.4-25.9,2.4-33.9,2-8.1,6-15,11.6-20.9,3.6-3.8,8.4-7,14.5-9.6,6.1-2.6,12.7-4,19.5-4.2h0Z"/>
        </g>
        <g>
          <path class="cls-2" d="M865.9,118.5c19.3,0,34.4,5.5,45.3,16.5,10.9,11,16.4,28.4,16.4,52.2s-5.5,41.2-16.4,52.1-26,16.4-45.3,16.4-34.2-5.4-45.2-16.4c-11-10.9-16.5-28.3-16.5-52.1s5.5-41.2,16.5-52.2c11.1-11,26.1-16.5,45.2-16.5ZM865.9,123.5c-7.2,0-13,5.2-17.2,15.7-4.3,10.5-6.4,26.4-6.4,47.9s2.1,37.4,6.4,47.8c4.3,10.4,10,15.6,17.2,15.6s13.2-5.2,17.4-15.5,6.3-26.3,6.3-47.9-2.1-37.7-6.4-48c-4.3-10.4-10-15.6-17.3-15.6h0Z"/>
          <path class="cls-2" d="M996.9,55.3c10.4,0,19.4,2.8,26.9,8.3,2.5,2,4.6,4.7,6.2,7.9,1.6,3.3,2.4,6.9,2.4,10.9s-1.7,8.8-5,12.2c-3.3,3.4-7.6,5.1-12.8,5.1s-10.3-1.6-13.9-4.8c-3.5-3.2-5.3-7.6-5.3-13.1s1.3-8.2,3.8-11.6,6.2-5.7,11.1-7.1c-.5-1-1.6-1.8-3.1-2.5-1.6-.7-3.6-1-5.9-1-6.4,0-10.9,2.2-13.6,6.5-1.8,2.5-3.1,6.2-3.8,11.1s-1,12.2-1,21.9v23.2h26.9v5h-26.9v98.9c0,7.7,2,13.1,5.9,16.1s9.9,4.5,17.8,4.5v5.3l-7-.2c-18.6-.5-30.7-.8-36.2-.8s-15.9.3-32.7,1v-5.3c6,0,10.2-1.3,12.6-3.9,2.3-2.6,3.5-7.3,3.5-14.2v-101.4h-17.1v-5h17.1c0-14.6,1.2-25.9,3.5-33.8,2.3-8,6.5-14.8,12.3-20.5,3.7-3.7,8.6-6.7,14.8-9.1,6.1-2.4,12.7-3.6,19.5-3.6h0Z"/>
        </g>
        <g>
          <path class="cls-2" d="M1224.1,73c-1.2,15.9-1.8,30.2-1.8,42.8s.2,14.2.8,19.1h-5.8c-4-20.6-9.5-35.1-16.5-43.5s-16.5-12.6-28.5-12.6h-5.8v143.7c0,7,.7,12.2,2.1,15.4s3.9,5.3,7.5,6.4c3.6,1.1,9.4,1.7,17.2,1.9v5c-21.1-.5-37.1-.8-47.8-.8s-25.9.2-46,.8v-5c7.9-.2,13.6-.8,17.2-1.9,3.6-1.1,6.1-3.2,7.6-6.4,1.4-3.2,2.1-8.3,2.1-15.4V78.8h-5.5c-8.1,0-14.9,1.8-20.5,5.3s-10.4,9.3-14.5,17.5c-4,8.1-7.5,19.2-10.3,33.3h-5.8c.5-4.9.8-11.2.8-19.1,0-12.6-.6-26.8-1.8-42.8,15.3.5,41.2.8,77.8.8s62.4-.2,77.5-.8h0Z"/>
          <path class="cls-2" d="M1258.8,253c-10.7,0-18.8-2.8-24-8.3-5.3-5.5-7.9-12.8-7.9-21.9s2-13.8,5.9-18.7c3.9-5,8.7-8.8,14.3-11.5s12.8-5.5,21.5-8.6c9.2-3.2,16-6.1,20.2-8.7,4.3-2.6,6.4-6.2,6.4-10.7v-19.6c0-7.1-1.6-12.5-4.9-16.5-3.3-3.9-8.3-5.9-15.2-5.9s-14.2,2-18.4,6c4.7,1.7,8.4,4.2,11,7.5s3.9,7.3,3.9,11.8-1.9,10.2-5.8,13.6c-3.9,3.3-8.6,5-14.1,5s-10.4-1.8-13.6-5.5-4.8-8.3-4.8-13.9,1.1-8.7,3.4-11.9c2.3-3.3,5.7-6.3,10.4-9.2,4.5-2.7,10.1-4.8,16.8-6.3,6.6-1.5,13.9-2.3,21.8-2.3s15.4.8,21.4,2.5,11.1,4.5,15.1,8.6c3.7,3.7,6.2,8.2,7.4,13.6,1.3,5.4,1.9,12.7,1.9,21.9v68.4c0,4,.4,6.9,1.1,8.6.8,1.7,2.2,2.5,4.4,2.5s5.5-1.4,9.1-4.3l2.5,4.3c-7.5,6.2-16.8,9.3-27.7,9.3s-15.7-1.8-19.4-5.5-5.6-8.6-5.8-14.9c-8.3,13.8-20.6,20.6-36.9,20.6h0ZM1278.2,236.9c6.5,0,12.2-3.4,17.1-10.3v-51.6c-2,3.3-6.3,7-12.8,11.1-6.5,4.2-11.5,8.4-14.9,12.6-3.3,4.2-5,10.2-5,18.1s1.4,12,4.3,15.2c2.8,3.2,6.6,4.9,11.3,4.9Z"/>
          <path class="cls-2" d="M1404.2,227.8c0,6.9,1.2,11.6,3.5,14.2,2.3,2.6,6.5,3.9,12.6,3.9v5.3c-17.4-.7-28.7-1-33.7-1s-17.3.3-34.7,1v-5.3c5.9,0,10-1.3,12.4-3.9,2.4-2.6,3.6-7.3,3.6-14.2V84.4c0-7.7-1.2-13.3-3.6-16.9-2.4-3.5-6.6-5.3-12.4-5.3v-5.2c5.4.5,10.6.8,15.6.8,14.6,0,26.8-1.2,36.8-3.5v173.5h-.1Z"/>
          <path class="cls-2" d="M1559,232.8c2.7,4,4.9,7,6.5,8.9,1.7,1.9,3.9,3.3,6.5,4.1v5.3c-13.4-.7-22.2-1-26.4-1s-16.4.3-32.5,1v-5.3c2.3,0,4.2-.4,5.5-1.2s2-2,2-3.5-.4-2.1-1.2-3.8l-24.9-45c-1.7-2.8-3.4-4.8-5.3-5.8-1.8-1-4.2-1.7-7-2v43.3c0,6.9,1.1,11.6,3.3,14.2,2.2,2.6,6.1,3.9,11.8,3.9v5.3c-16.8-.7-27.7-1-32.7-1s-17.3.3-34.7,1v-5.3c5.9,0,10-1.3,12.5-3.9,2.4-2.6,3.6-7.3,3.6-14.2V84.4c0-7.7-1.2-13.3-3.6-16.9-2.4-3.5-6.6-5.3-12.5-5.3v-5.2c5.4.5,10.6.8,15.6.8,14.6,0,26.8-1.2,36.7-3.5v125.5c3.4-.3,6.3-1,8.7-2s4.6-2.5,6.4-4.5l19.1-18.6c5.5-5.5,8.3-10.6,8.3-15.3s-1.8-6.9-5.3-9.2c-3.5-2.3-8.2-3.6-14.1-3.9v-5c9.2.5,19,.8,29.4.8s23.7-.2,29.4-.8v5c-9.9,2.2-20.4,8.6-31.5,19.4l-16.1,16.6,42.5,70.5h0Z"/>
        </g>
      </g>
    </g>
    <metadata>
      <sfw xmlns="http://ns.adobe.com/SaveForWeb/1.0/">
        <slices/>
        <sliceSourceBounds x="-289.02" y="106.17" width="1572.03" height="255.66" bottomLeftOrigin="true"/>
        <optimizationSettings>
          <targetSettings fileFormat="PNG24Format" targetSettingsID="0">
            <PNG24Format filtered="false" interlaced="false" matteColor="#FFFFFF" noMatteColor="false" transparency="true"/>
          </targetSettings>
        </optimizationSettings>
      </sfw>
    </metadata>
  </g>
</svg>