<?xml version="1.0" encoding="utf-8"?>
<!-- Generator: Adobe Illustrator 28.0.0, SVG Export Plug-In . SVG Version: 6.00 Build 0)  -->
<!DOCTYPE svg PUBLIC "-//W3C//DTD SVG 1.1//EN" "http://www.w3.org/Graphics/SVG/1.1/DTD/svg11.dtd" [
	<!ENTITY ns_extend "http://ns.adobe.com/Extensibility/1.0/">
	<!ENTITY ns_ai "http://ns.adobe.com/AdobeIllustrator/10.0/">
	<!ENTITY ns_graphs "http://ns.adobe.com/Graphs/1.0/">
	<!ENTITY ns_vars "http://ns.adobe.com/Variables/1.0/">
	<!ENTITY ns_imrep "http://ns.adobe.com/ImageReplacement/1.0/">
	<!ENTITY ns_sfw "http://ns.adobe.com/SaveForWeb/1.0/">
	<!ENTITY ns_custom "http://ns.adobe.com/GenericCustomNamespace/1.0/">
	<!ENTITY ns_adobe_xpath "http://ns.adobe.com/XPath/1.0/">
]>
<svg version="1.1" id="Layer_1" xmlns:x="&ns_extend;" xmlns:i="&ns_ai;" xmlns:graph="&ns_graphs;"
	 xmlns="http://www.w3.org/2000/svg" xmlns:xlink="http://www.w3.org/1999/xlink" x="0px" y="0px" viewBox="0 0 272.1 66.5"
	 style="enable-background:new 0 0 272.1 66.5;" xml:space="preserve">
<style type="text/css">
	.st0{clip-path:url(#SVGID_00000082330329133679175080000011250161987550093703_);}
	.st1{fill:#8C98A4;}
</style>
<metadata>
	<sfw  xmlns="&ns_sfw;">
		<slices></slices>
	</sfw>
</metadata>
<g>
	<defs>
		<rect id="SVGID_1_" y="13" width="272.1" height="40.5"/>
	</defs>
	<clipPath id="SVGID_00000135688308860011918040000014639440765522590377_">
		<use xlink:href="#SVGID_1_"  style="overflow:visible;"/>
	</clipPath>
	<g style="clip-path:url(#SVGID_00000135688308860011918040000014639440765522590377_);">
		<path class="st1" d="M46,44.9l-7.5,8c-0.2,0.2-0.4,0.3-0.6,0.4c-0.2,0.1-0.5,0.1-0.7,0.1H1.9c-0.2,0-0.3,0-0.5-0.1
			C1.2,53.3,1.1,53.1,1,53C1,52.8,1,52.6,1,52.5c0-0.2,0.1-0.3,0.2-0.4l7.5-8c0.2-0.2,0.4-0.3,0.6-0.4c0.2-0.1,0.5-0.1,0.7-0.1h35.4
			c0.2,0,0.3,0,0.5,0.1c0.1,0.1,0.3,0.2,0.3,0.4c0.1,0.2,0.1,0.3,0.1,0.5C46.2,44.6,46.1,44.8,46,44.9z M38.5,28.8
			c-0.2-0.2-0.4-0.3-0.6-0.4c-0.2-0.1-0.5-0.1-0.7-0.1H1.9c-0.2,0-0.3,0-0.5,0.1c-0.1,0.1-0.3,0.2-0.3,0.4C1,28.9,1,29,1,29.2
			s0.1,0.3,0.2,0.4l7.5,8.1c0.2,0.2,0.4,0.3,0.6,0.4c0.2,0.1,0.5,0.1,0.7,0.1h35.4c0.2,0,0.3,0,0.5-0.1c0.1-0.1,0.3-0.2,0.3-0.4
			c0.1-0.2,0.1-0.3,0.1-0.5S46.1,37,46,36.8L38.5,28.8z M1.9,23h35.4c0.2,0,0.5,0,0.7-0.1c0.2-0.1,0.4-0.2,0.6-0.4l7.5-8
			c0.1-0.1,0.2-0.3,0.2-0.4c0-0.2,0-0.3-0.1-0.5c-0.1-0.2-0.2-0.3-0.3-0.4c-0.1-0.1-0.3-0.1-0.5-0.1H10c-0.2,0-0.5,0-0.7,0.1
			c-0.2,0.1-0.4,0.2-0.6,0.4l-7.5,8C1.1,21.7,1,21.9,1,22c0,0.2,0,0.3,0.1,0.5c0.1,0.2,0.2,0.3,0.3,0.4C1.5,23,1.7,23,1.9,23z"/>
		<path class="st1" d="M89,30.1H70v-6.3h23.8v-6.3H70c-0.8,0-1.6,0.2-2.4,0.5c-0.8,0.3-1.4,0.8-2,1.4c-0.6,0.6-1,1.3-1.4,2
			c-0.3,0.8-0.5,1.6-0.5,2.4v6.4c0,0.8,0.2,1.6,0.5,2.4c0.3,0.8,0.8,1.4,1.4,2c0.6,0.6,1.3,1,2,1.4c0.8,0.3,1.6,0.5,2.4,0.5h18.9
			v6.3H64.2V49h24.7c1.7,0,3.2-0.7,4.4-1.8c1.2-1.2,1.8-2.8,1.8-4.4v-6.4c0-1.7-0.7-3.2-1.8-4.4C92.2,30.8,90.6,30.1,89,30.1z"/>
		<path class="st1" d="M125.6,17.5h-19c-1.7,0-3.2,0.7-4.4,1.8c-1.2,1.2-1.8,2.8-1.8,4.4v19c0,1.7,0.7,3.2,1.8,4.4
			c1.2,1.2,2.8,1.8,4.4,1.8h19c1.7,0,3.2-0.7,4.4-1.8c1.2-1.2,1.8-2.8,1.8-4.4v-19c0-1.7-0.7-3.2-1.8-4.4
			C128.9,18.2,127.3,17.5,125.6,17.5z M125.6,42.7h-18.9V23.8h18.9L125.6,42.7z"/>
		<path class="st1" d="M192.1,17.5h-18.5c-1.7,0-3.2,0.7-4.4,1.8c-1.2,1.2-1.8,2.8-1.8,4.4V49h6.3V38.6h18.4V49h6.3V23.8
			c0-1.7-0.7-3.2-1.8-4.4C195.4,18.2,193.8,17.5,192.1,17.5z M192.1,32.4h-18.4v-8.5h18.4V32.4z"/>
		<path class="st1" d="M265.9,17.5h-18.5c-1.7,0-3.2,0.7-4.4,1.8c-1.2,1.2-1.8,2.8-1.8,4.4V49h6.3V38.6h18.4V49h6.3V23.8
			c0-0.8-0.2-1.6-0.5-2.4c-0.3-0.8-0.8-1.4-1.4-2c-0.6-0.6-1.3-1-2-1.4C267.5,17.7,266.7,17.5,265.9,17.5z M265.9,32.4h-18.5v-8.5
			h18.4L265.9,32.4z"/>
		<path class="st1" d="M229.2,42.7h-2.5l-9-22.6c-0.3-0.8-0.9-1.4-1.5-1.9c-0.7-0.5-1.5-0.7-2.4-0.7h-5.6c-1.1,0-2.2,0.4-2.9,1.2
			c-0.8,0.8-1.2,1.8-1.2,2.9V49h6.3V23.8h2.5l9,22.6c0.3,0.8,0.9,1.4,1.6,1.9c0.7,0.5,1.5,0.7,2.4,0.7h5.6c0.5,0,1.1-0.1,1.6-0.3
			c0.5-0.2,1-0.5,1.4-0.9c0.4-0.4,0.7-0.8,0.9-1.4c0.2-0.5,0.3-1,0.3-1.6V17.5h-6.3L229.2,42.7z"/>
		<path class="st1" d="M143.8,17.5h-6.3v25.2c0,1.7,0.7,3.2,1.8,4.4c1.2,1.2,2.8,1.8,4.4,1.8h18.9v-6.3h-18.9V17.5z"/>
	</g>
</g>
</svg>
