<?xml version="1.0" encoding="UTF-8"?>
<svg xmlns="http://www.w3.org/2000/svg" version="1.1" viewBox="0 0 1232.5 452">
  <defs>
    <style>
      .cls-1 {
        fill: #8c98a4;
      }
    </style>
  </defs>
  <!-- Generator: Adobe Illustrator 28.6.0, SVG Export Plug-In . SVG Version: 1.2.0 Build 709)  -->
  <g>
    <g id="Layer_1">
      <g>
        <g>
          <path class="cls-1" d="M18,75.1c-4.8-1.8-8.6-4.5-11.4-8-2.9-3.5-4.4-7.8-4.5-12.8h21.3c.3,2.8,1.4,5,3.2,6.4,1.8,1.5,4.1,2.2,7,2.2s5.3-.6,7-1.9c1.7-1.3,2.6-3,2.6-5.3s-.7-3.4-2.1-4.7c-1.4-1.2-3-2.2-5-3-2-.8-4.8-1.7-8.5-2.7-5.3-1.5-9.7-3-13-4.5-3.4-1.5-6.3-3.7-8.7-6.7-2.4-3-3.6-6.8-3.6-11.6,0-7.1,2.8-12.6,8.3-16.6C16.1,2,23.4,0,32.3,0s16.4,2,21.9,6c5.5,4,8.5,9.6,8.9,16.7h-21.7c-.2-2.5-1.1-4.4-2.9-5.8-1.8-1.4-4.1-2.1-6.9-2.1s-4.4.6-5.9,1.8c-1.5,1.2-2.2,2.9-2.2,5.1s1.3,4.4,3.8,5.7c2.5,1.4,6.4,2.9,11.7,4.4,5.3,1.7,9.6,3.2,13,4.8,3.3,1.5,6.2,3.7,8.6,6.6,2.4,2.9,3.6,6.6,3.6,11.1s-1.2,8.3-3.6,11.8c-2.4,3.5-5.8,6.4-10.4,8.4-4.5,2.1-9.9,3.1-16.1,3.1s-11.4-.9-16.2-2.7Z"/>
          <path class="cls-1" d="M94.1,72.8c-6.5-3.3-11.6-8-15.4-13.9-3.8-6-5.7-12.6-5.7-20.1s1.9-14.1,5.7-20c3.8-5.9,8.9-10.5,15.4-13.9,6.4-3.3,13.5-5,21.3-5s14.8,1.7,21.3,5c6.4,3.3,11.5,7.9,15.2,13.9,3.7,5.9,5.6,12.6,5.6,20s-1.9,14.1-5.6,20.1c-3.8,6-8.8,10.6-15.2,13.9-6.4,3.3-13.5,5-21.2,5s-14.8-1.7-21.3-5ZM131.2,54.9c3.9-4,5.9-9.4,5.9-16s-2-12.1-5.9-16.1c-4-4-9.2-6-15.8-6s-11.9,2-15.9,6c-3.9,4-5.9,9.3-5.9,16.1s2,12.1,5.9,16.1c4,4,9.2,6,15.9,6s11.8-2,15.8-6.1Z"/>
          <path class="cls-1" d="M188.7,62.8h26.3v14.3h-46.3V1.1h20v61.7Z"/>
          <path class="cls-1" d="M275.8,63.6h-30.7l-4.9,13.4h-21L249,1.1h23.2l29.8,76h-21.2l-4.9-13.4ZM270.7,49.4l-10.2-27.8-10.1,27.8h20.3Z"/>
          <path class="cls-1" d="M384.6,77.1h-20.1l-33.5-46.9v46.9h-20V1.1h20l33.5,47.1V1.1h20.1v76Z"/>
          <path class="cls-1" d="M450.4,63.6h-30.7l-4.9,13.4h-21L423.6,1.1h23.2l29.8,76h-21.2l-4.9-13.4ZM445.3,49.4l-10.2-27.8-10.1,27.8h20.3Z"/>
        </g>
        <g>
          <path class="cls-1" d="M46.2,317.6c-13.8-5.2-24.9-13-33.1-23.2-8.3-10.2-12.6-22.6-13.1-37h61.9c.9,8.2,4,14.4,9.2,18.7,5.2,4.3,12,6.4,20.4,6.4s15.4-1.8,20.4-5.5c5-3.7,7.5-8.7,7.5-15.2s-2-9.9-5.9-13.5c-4-3.6-8.8-6.5-14.6-8.8-5.8-2.3-14-4.9-24.6-7.8-15.4-4.4-28-8.8-37.7-13.2-9.7-4.4-18.1-10.9-25.1-19.5-7-8.6-10.5-19.8-10.5-33.6,0-20.5,8-36.6,24.1-48.2,16.1-11.6,37-17.4,62.9-17.4s47.5,5.8,63.6,17.4c16.1,11.6,24.7,27.8,25.8,48.5h-62.9c-.5-7.1-3.3-12.7-8.5-16.8-5.2-4.1-11.9-6.1-20.1-6.1s-12.7,1.7-17,5.2c-4.3,3.4-6.5,8.4-6.5,14.9s3.6,12.7,10.9,16.6c7.2,4,18.6,8.3,34,12.9,15.4,4.8,27.9,9.4,37.6,13.8,9.6,4.4,18,10.8,25,19.1,7,8.4,10.5,19.1,10.5,32.3s-3.5,24-10.4,34.2c-6.9,10.3-16.9,18.4-30.1,24.5-13.1,6.1-28.7,9.1-46.6,9.1s-33.1-2.6-46.9-7.8Z"/>
          <path class="cls-1" d="M247.4,103v131.8c0,13.2,3.5,23.3,10.5,30.4,7,7.1,17.3,10.7,30.9,10.7s24-3.6,31.3-10.7c7.2-7.1,10.9-17.3,10.9-30.4V103h58.1v131.5c0,19.7-4.5,36.3-13.6,49.9-9.1,13.6-21.2,23.8-36.5,30.7-15.3,6.9-32.3,10.4-51.2,10.4s-35.6-3.4-50.5-10.2c-14.8-6.8-26.6-17-35.2-30.7-8.6-13.7-12.9-30.4-12.9-50V103h58.1Z"/>
          <path class="cls-1" d="M1035.7,103v220.3h-58.1V103h58.1Z"/>
          <path class="cls-1" d="M1232.5,103v43h-63.2v177.3h-58.1v-177.3h-63.2v-43h184.6Z"/>
          <polygon class="cls-1" points="652.7 1.1 606.4 103 540.1 255.5 473.1 103 404.5 103 404.5 323.2 462.6 323.2 462.6 190.8 516.3 323.2 563.2 323.2 616.6 191.1 616.6 323.2 674.7 323.2 674.7 1.1 652.7 1.1"/>
          <polygon class="cls-1" points="826.6 255.5 759.7 103 713.1 1.1 691 1.1 691 323.2 749.1 323.2 749.1 190.8 802.8 323.2 849.7 323.2 903.1 191.1 903.1 452 961.2 452 961.2 103 892.9 103 826.6 255.5"/>
        </g>
        <g>
          <path class="cls-1" d="M1087.3,388.2h-6.8v12.1h6.8c2.4,0,4.1-.5,5.3-1.6,1.1-1.1,1.7-2.5,1.7-4.5,0-4.1-2.3-6.1-7-6.1Z"/>
          <polygon class="cls-1" points="1039.7 408.5 1052.1 408.5 1045.9 391 1039.7 408.5"/>
          <polygon class="cls-1" points="1120.7 408.5 1133 408.5 1126.8 391 1120.7 408.5"/>
          <path class="cls-1" d="M1210.9,350.3h-211.8c-11.9,0-21.6,9.4-21.6,21.1v59.5c0,11.6,9.7,21.1,21.6,21.1h211.8c11.9,0,21.6-9.4,21.6-21.1v-59.5c0-11.6-9.7-21.1-21.6-21.1ZM1057.2,423.1l-2.8-7.9h-17l-2.8,7.9h-9l15.3-41.8h10l15.3,41.8h-9.1ZM1101.5,400.6c-1.1,2-2.8,3.5-5.1,4.7-2.3,1.2-5.2,1.8-8.7,1.8h-7.2v16h-8.6v-41.7h15.7c3.3,0,6.1.6,8.4,1.7,2.3,1.1,4.1,2.6,5.2,4.6,1.2,2,1.7,4.2,1.7,6.6s-.5,4.3-1.6,6.3ZM1138.1,423.1l-2.8-7.9h-17l-2.8,7.9h-9l15.3-41.8h10l15.3,41.8h-9.1ZM1161.3,409.5c1.1,2.1,2.6,3.7,4.5,4.8,1.9,1.1,4.1,1.7,6.6,1.7s4.4-.5,6.1-1.5c1.8-1,3.1-2.5,4.1-4.5h9.8c-1.4,4.3-3.9,7.6-7.5,9.9-3.6,2.4-7.8,3.6-12.6,3.6s-7.8-.9-11-2.7c-3.3-1.8-5.9-4.3-7.8-7.6-1.9-3.2-2.8-6.9-2.8-11s.9-7.8,2.8-11c1.9-3.2,4.5-5.8,7.8-7.6,3.3-1.8,7-2.7,11-2.7s8.9,1.2,12.5,3.6c3.6,2.4,6.1,5.7,7.5,9.9h-9.8c-1-2-2.4-3.5-4.1-4.5-1.8-1-3.8-1.5-6.1-1.5s-4.7.6-6.6,1.7c-1.9,1.1-3.4,2.7-4.5,4.8-1.1,2.1-1.6,4.5-1.6,7.3s.5,5.2,1.6,7.3Z"/>
        </g>
      </g>
    </g>
    <metadata>
      <sfw xmlns="http://ns.adobe.com/SaveForWeb/1.0/">
        <slices/>
        <sliceSourceBounds x="15.53" y="7.33" width="1232.47" height="451.95" bottomLeftOrigin="true"/>
        <optimizationSettings>
          <targetSettings fileFormat="PNG24Format" targetSettingsID="0">
            <PNG24Format filtered="false" interlaced="false" matteColor="#FFFFFF" noMatteColor="false" transparency="true"/>
          </targetSettings>
        </optimizationSettings>
      </sfw>
    </metadata>
  </g>
</svg>