<?xml version="1.0" encoding="utf-8"?>
<!-- Generator: Adobe Illustrator 28.0.0, SVG Export Plug-In . SVG Version: 6.00 Build 0)  -->
<!DOCTYPE svg PUBLIC "-//W3C//DTD SVG 1.1//EN" "http://www.w3.org/Graphics/SVG/1.1/DTD/svg11.dtd" [
	<!ENTITY ns_extend "http://ns.adobe.com/Extensibility/1.0/">
	<!ENTITY ns_ai "http://ns.adobe.com/AdobeIllustrator/10.0/">
	<!ENTITY ns_graphs "http://ns.adobe.com/Graphs/1.0/">
	<!ENTITY ns_vars "http://ns.adobe.com/Variables/1.0/">
	<!ENTITY ns_imrep "http://ns.adobe.com/ImageReplacement/1.0/">
	<!ENTITY ns_sfw "http://ns.adobe.com/SaveForWeb/1.0/">
	<!ENTITY ns_custom "http://ns.adobe.com/GenericCustomNamespace/1.0/">
	<!ENTITY ns_adobe_xpath "http://ns.adobe.com/XPath/1.0/">
]>
<svg version="1.1" id="Layer_1" xmlns:x="&ns_extend;" xmlns:i="&ns_ai;" xmlns:graph="&ns_graphs;"
	 xmlns="http://www.w3.org/2000/svg" xmlns:xlink="http://www.w3.org/1999/xlink" x="0px" y="0px" viewBox="0 0 205 66.5"
	 style="enable-background:new 0 0 205 66.5;" xml:space="preserve">
<style type="text/css">
	.st0{fill:#8C98A4;}
</style>
<metadata>
	<sfw  xmlns="&ns_sfw;">
		<slices></slices>
		<sliceSourceBounds  bottomLeftOrigin="true" height="57.2" width="194.5" x="2.5" y="4.6"></sliceSourceBounds>
	</sfw>
</metadata>
<g>
	<path class="st0" d="M176.9,40.9l-11.2-24.5h-9.3l16,33.1l-0.3,1c-0.4,1.3-1.2,2.5-2.4,3.2c-1.1,0.8-2.5,1.1-3.9,1
		c-1.6,0-3.2-0.4-4.6-1.2l-1.5,7.1c2.2,0.9,4.5,1.4,6.8,1.4c6.4,0,10.3-2.4,13.5-9.3l17-36.2h-9L176.9,40.9z"/>
	<path class="st0" d="M97.6,4.7H70.6v45.1h8.8V33.2h18.1c9.8,0,16.3-5,16.3-14.3C113.9,9.6,107.4,4.7,97.6,4.7z M97.1,25.3H79.4
		V12.4h17.6c5.1,0,8,2.3,8,6.4S102.2,25.3,97.1,25.3z"/>
	<path class="st0" d="M150.7,41.2V27.6c0-8-5.8-12.2-15.6-12.2c-8,0-15,3.7-17,9.5l7.2,2.6c1.1-2.9,4.8-5,9.5-5c5.5,0,7.8,2.3,7.8,5
		v0.9l-13.1,1.4C122,30.6,117,34,117,40.1c0,6.6,5.7,10.2,13.2,10.2c4.9,0.2,9.6-1.6,13.2-4.8c1.3,3.2,2.7,5.4,11.6,4.2V43
		C151.5,43.8,150.7,43,150.7,41.2z M142.7,36.9c0,4.4-6.1,6.7-11.2,6.7c-3.9,0-6.2-1.3-6.2-3.7c0-2.5,1.9-3.4,5.6-3.8l11.9-1.4
		L142.7,36.9z"/>
	<path class="st0" d="M54,39.2c0.1,0.2,0.1,0.4,0,0.6c0,0.2-0.1,0.4-0.3,0.5l-8.5,8.9c-0.2,0.2-0.4,0.3-0.7,0.5
		c-0.2,0.1-0.5,0.2-0.8,0.2H3.5c-0.2,0-0.4,0-0.5-0.1c-0.2-0.1-0.3-0.3-0.4-0.4c-0.1-0.2-0.1-0.4,0-0.5c0-0.2,0.1-0.4,0.2-0.5
		l8.5-8.9c0.2-0.2,0.4-0.3,0.7-0.5c0.2-0.1,0.5-0.2,0.8-0.2H53c0.2,0,0.4,0.1,0.5,0.2C53.7,38.9,53.9,39,54,39.2z M45.2,22.2
		c-0.2-0.2-0.4-0.3-0.7-0.5c-0.3-0.1-0.5-0.2-0.8-0.2H3.5c-0.2,0-0.4,0.1-0.5,0.2c-0.2,0.1-0.3,0.2-0.4,0.4c-0.1,0.2-0.1,0.4,0,0.5
		c0,0.2,0.1,0.4,0.2,0.5l8.5,8.9c0.2,0.2,0.4,0.3,0.7,0.5c0.2,0.1,0.5,0.2,0.8,0.2H53c0.2,0,0.4-0.1,0.5-0.2
		c0.2-0.1,0.3-0.2,0.4-0.4C54,32,54,31.8,54,31.7c0-0.2-0.1-0.4-0.3-0.5L45.2,22.2z M3,15.6c0.2,0.1,0.3,0.1,0.5,0.1h40.3
		c0.3,0,0.5-0.1,0.8-0.2c0.2-0.1,0.5-0.3,0.7-0.5l8.5-8.9c0.1-0.1,0.2-0.3,0.3-0.5C54,5.6,54,5.4,54,5.2c-0.1-0.2-0.2-0.3-0.4-0.4
		c-0.2-0.1-0.4-0.2-0.5-0.2H12.8c-0.3,0-0.5,0.1-0.8,0.2c-0.2,0.1-0.5,0.3-0.7,0.5l-8.5,9c-0.1,0.1-0.2,0.3-0.3,0.5
		c-0.1,0.2-0.1,0.4,0,0.5C2.7,15.4,2.8,15.5,3,15.6L3,15.6z"/>
</g>
</svg>
