<?xml version="1.0" encoding="utf-8"?>
<!-- Generator: Adobe Illustrator 28.0.0, SVG Export Plug-In . SVG Version: 6.00 Build 0)  -->
<!DOCTYPE svg PUBLIC "-//W3C//DTD SVG 1.1//EN" "http://www.w3.org/Graphics/SVG/1.1/DTD/svg11.dtd" [
	<!ENTITY ns_extend "http://ns.adobe.com/Extensibility/1.0/">
	<!ENTITY ns_ai "http://ns.adobe.com/AdobeIllustrator/10.0/">
	<!ENTITY ns_graphs "http://ns.adobe.com/Graphs/1.0/">
	<!ENTITY ns_vars "http://ns.adobe.com/Variables/1.0/">
	<!ENTITY ns_imrep "http://ns.adobe.com/ImageReplacement/1.0/">
	<!ENTITY ns_sfw "http://ns.adobe.com/SaveForWeb/1.0/">
	<!ENTITY ns_custom "http://ns.adobe.com/GenericCustomNamespace/1.0/">
	<!ENTITY ns_adobe_xpath "http://ns.adobe.com/XPath/1.0/">
]>
<svg version="1.1" id="Layer_1" xmlns:x="&ns_extend;" xmlns:i="&ns_ai;" xmlns:graph="&ns_graphs;"
	 xmlns="http://www.w3.org/2000/svg" xmlns:xlink="http://www.w3.org/1999/xlink" x="0px" y="0px" viewBox="0 0 363.9 66.5"
	 style="enable-background:new 0 0 363.9 66.5;" xml:space="preserve">
<style type="text/css">
	.st0{clip-path:url(#SVGID_00000107559556879706437680000015832737320429304199_);}
	.st1{fill:#8C98A4;}
</style>
<metadata>
	<sfw  xmlns="&ns_sfw;">
		<slices></slices>
		<sliceSourceBounds  bottomLeftOrigin="true" height="54.1" width="363.9" x="0" y="6.2"></sliceSourceBounds>
	</sfw>
</metadata>
<g>
	<defs>
		<rect id="SVGID_1_" y="6.2" width="363.9" height="54.1"/>
	</defs>
	<clipPath id="SVGID_00000146471013964872226410000003986363580807905171_">
		<use xlink:href="#SVGID_1_"  style="overflow:visible;"/>
	</clipPath>
	<g style="clip-path:url(#SVGID_00000146471013964872226410000003986363580807905171_);">
		<path class="st1" d="M61.5,48.9l-10,10.7c-0.2,0.2-0.5,0.4-0.8,0.5c-0.3,0.1-0.6,0.2-0.9,0.2H2.5c-0.2,0-0.5-0.1-0.6-0.2
			c-0.2-0.1-0.3-0.3-0.4-0.5c-0.1-0.2-0.1-0.4-0.1-0.7c0-0.2,0.1-0.4,0.3-0.6l10-10.7c0.2-0.2,0.5-0.4,0.8-0.5
			c0.3-0.1,0.6-0.2,0.9-0.2h47.4c0.2,0,0.4,0.1,0.6,0.2c0.2,0.1,0.3,0.3,0.4,0.5c0.1,0.2,0.1,0.4,0.1,0.7
			C61.8,48.5,61.7,48.7,61.5,48.9z M51.5,27.2c-0.2-0.2-0.5-0.4-0.8-0.5c-0.3-0.1-0.6-0.2-0.9-0.2H2.5c-0.2,0-0.5,0.1-0.6,0.2
			c-0.2,0.1-0.3,0.3-0.4,0.5c-0.1,0.2-0.1,0.4-0.1,0.7c0,0.2,0.1,0.4,0.3,0.6l10,10.8c0.2,0.2,0.5,0.4,0.8,0.5
			c0.3,0.1,0.6,0.2,0.9,0.2h47.4c0.2,0,0.5-0.1,0.6-0.2c0.2-0.1,0.3-0.3,0.4-0.5c0.1-0.2,0.1-0.4,0.1-0.7s-0.1-0.4-0.3-0.6
			L51.5,27.2z M2.5,19.6h47.4c0.3,0,0.6-0.1,0.9-0.2c0.3-0.1,0.6-0.3,0.8-0.5l10-10.7c0.2-0.2,0.3-0.4,0.3-0.6c0-0.2,0-0.5-0.1-0.7
			c-0.1-0.2-0.2-0.4-0.4-0.5c-0.2-0.1-0.4-0.2-0.6-0.2H13.3c-0.3,0-0.6,0.1-0.9,0.2c-0.3,0.1-0.6,0.3-0.8,0.5l-10,10.7
			c-0.2,0.2-0.3,0.4-0.3,0.6c0,0.2,0,0.4,0.1,0.7c0.1,0.2,0.2,0.4,0.4,0.5C2,19.5,2.3,19.6,2.5,19.6z"/>
		<path class="st1" d="M119,29H93.6v-8.4h31.9v-8.4h-32c-1.1,0-2.2,0.2-3.2,0.6c-1,0.4-1.9,1-2.7,1.8c-0.8,0.8-1.4,1.7-1.8,2.7
			c-0.4,1-0.6,2.1-0.6,3.2v8.5c0,1.1,0.2,2.2,0.6,3.2c0.4,1,1,1.9,1.8,2.7s1.7,1.4,2.7,1.8c1,0.4,2.1,0.6,3.2,0.6h25.3v8.4H85.8v8.4
			h33.1c2.2,0,4.3-0.9,5.9-2.4c1.6-1.6,2.4-3.7,2.4-5.9v-8.5c0-2.2-0.9-4.3-2.4-5.9C123.3,29.9,121.2,29.1,119,29z"/>
		<path class="st1" d="M168,12.2h-25.4c-2.2,0-4.3,0.9-5.9,2.4c-1.6,1.6-2.4,3.7-2.4,5.9v25.4c0,2.2,0.9,4.3,2.4,5.9
			c1.6,1.6,3.7,2.4,5.9,2.4H168c2.2,0,4.3-0.9,5.9-2.4c1.6-1.6,2.4-3.7,2.4-5.9V20.6c0-2.2-0.9-4.3-2.4-5.9
			C172.3,13.1,170.2,12.2,168,12.2z M168,45.9h-25.3V20.6h25.3L168,45.9z"/>
		<path class="st1" d="M256.9,12.2h-24.8c-2.2,0-4.3,0.9-5.9,2.4c-1.6,1.6-2.4,3.7-2.4,5.9v33.7h8.4V40.5h24.7v13.8h8.4V20.6
			c0-2.2-0.9-4.3-2.4-5.9C261.3,13.1,259.2,12.2,256.9,12.2z M256.9,32h-24.7V20.6h24.7V32z"/>
		<path class="st1" d="M355.5,12.2h-24.7c-2.2,0-4.3,0.9-5.9,2.4c-1.6,1.6-2.4,3.7-2.4,5.9v33.7h8.4V40.5h24.7v13.8h8.4V20.6
			c0-1.1-0.2-2.2-0.6-3.2c-0.4-1-1-1.9-1.8-2.7c-0.8-0.8-1.7-1.4-2.7-1.8C357.7,12.4,356.6,12.2,355.5,12.2z M355.5,32h-24.7V20.6
			h24.7L355.5,32z"/>
		<path class="st1" d="M306.5,45.9h-3.4l-12-30.2c-0.4-1-1.1-1.9-2.1-2.6c-0.9-0.6-2-1-3.1-0.9h-7.5c-1.5,0-2.9,0.6-3.9,1.6
			c-1,1-1.6,2.5-1.6,3.9v36.5h8.4V20.6h3.4l12,30.2c0.4,1,1.1,1.9,2.1,2.6c0.9,0.6,2,1,3.2,0.9h7.5c0.7,0,1.5-0.1,2.1-0.4
			c0.7-0.3,1.3-0.7,1.8-1.2c0.5-0.5,0.9-1.1,1.2-1.8c0.3-0.7,0.4-1.4,0.4-2.1V12.2h-8.4L306.5,45.9z"/>
		<path class="st1" d="M192.2,12.2h-8.4v33.7c0,2.2,0.9,4.3,2.4,5.9c1.6,1.6,3.7,2.4,5.9,2.4h25.3v-8.4h-25.3V12.2z"/>
	</g>
</g>
</svg>
