<?xml version="1.0" encoding="utf-8"?>
<!-- Generator: Adobe Illustrator 28.0.0, SVG Export Plug-In . SVG Version: 6.00 Build 0)  -->
<!DOCTYPE svg PUBLIC "-//W3C//DTD SVG 1.1//EN" "http://www.w3.org/Graphics/SVG/1.1/DTD/svg11.dtd" [
	<!ENTITY ns_extend "http://ns.adobe.com/Extensibility/1.0/">
	<!ENTITY ns_ai "http://ns.adobe.com/AdobeIllustrator/10.0/">
	<!ENTITY ns_graphs "http://ns.adobe.com/Graphs/1.0/">
	<!ENTITY ns_vars "http://ns.adobe.com/Variables/1.0/">
	<!ENTITY ns_imrep "http://ns.adobe.com/ImageReplacement/1.0/">
	<!ENTITY ns_sfw "http://ns.adobe.com/SaveForWeb/1.0/">
	<!ENTITY ns_custom "http://ns.adobe.com/GenericCustomNamespace/1.0/">
	<!ENTITY ns_adobe_xpath "http://ns.adobe.com/XPath/1.0/">
]>
<svg version="1.1" id="Layer_1" xmlns:x="&ns_extend;" xmlns:i="&ns_ai;" xmlns:graph="&ns_graphs;"
	 xmlns="http://www.w3.org/2000/svg" xmlns:xlink="http://www.w3.org/1999/xlink" x="0px" y="0px" viewBox="0 0 227.9 66.5"
	 style="enable-background:new 0 0 227.9 66.5;" xml:space="preserve">
<style type="text/css">
	.st0{fill:#8C98A4;}
</style>
<metadata>
	<sfw  xmlns="&ns_sfw;">
		<slices></slices>
		<sliceSourceBounds  bottomLeftOrigin="true" height="48.6" width="218.1" x="4.9" y="8.9"></sliceSourceBounds>
	</sfw>
</metadata>
<g>
	<path class="st0" d="M58.4,47.4l-8.9,9.5c-0.2,0.2-0.4,0.4-0.7,0.5c-0.3,0.1-0.5,0.2-0.8,0.2H5.9c-0.2,0-0.4-0.1-0.6-0.2
		C5.2,57.3,5,57.1,5,56.9c-0.1-0.2-0.1-0.4-0.1-0.6c0-0.2,0.1-0.4,0.3-0.5l8.9-9.5c0.2-0.2,0.4-0.4,0.7-0.5c0.3-0.1,0.5-0.2,0.8-0.2
		h42.1c0.2,0,0.4,0.1,0.6,0.2c0.2,0.1,0.3,0.3,0.4,0.5c0.1,0.2,0.1,0.4,0.1,0.6C58.6,47.1,58.5,47.2,58.4,47.4L58.4,47.4z
		 M49.5,28.2c-0.2-0.2-0.4-0.4-0.7-0.5c-0.3-0.1-0.5-0.2-0.8-0.2H5.9c-0.2,0-0.4,0.1-0.6,0.2C5.2,27.8,5,28,5,28.2
		c-0.1,0.2-0.1,0.4-0.1,0.6c0,0.2,0.1,0.4,0.3,0.5l8.9,9.5c0.2,0.2,0.4,0.4,0.7,0.5c0.3,0.1,0.5,0.2,0.8,0.2h42.1
		c0.2,0,0.4-0.1,0.6-0.2c0.2-0.1,0.3-0.3,0.4-0.5c0.1-0.2,0.1-0.4,0.1-0.6c0-0.2-0.1-0.4-0.3-0.5L49.5,28.2z M5.9,21.4H48
		c0.3,0,0.6-0.1,0.8-0.2c0.3-0.1,0.5-0.3,0.7-0.5l8.9-9.5c0.1-0.1,0.2-0.3,0.3-0.5c0-0.2,0-0.4-0.1-0.6c-0.1-0.2-0.2-0.3-0.4-0.5
		c-0.2-0.1-0.4-0.2-0.6-0.2H15.5c-0.3,0-0.6,0.1-0.8,0.2c-0.3,0.1-0.5,0.3-0.7,0.5l-8.9,9.5C5,19.8,4.9,20,4.9,20.2s0,0.4,0.1,0.6
		s0.2,0.3,0.4,0.5C5.5,21.3,5.7,21.4,5.9,21.4L5.9,21.4z"/>
	<path class="st0" d="M100.9,13.3V9.1H84.5c-2.5,0-4.4,2-4.4,4.4v3.6c0,2.4,2,4.4,4.4,4.4h12.2v4.2H80.1v4.2h16.4
		c2.5,0,4.4-2,4.4-4.4v-3.6c0-2.4-2-4.4-4.4-4.4H84.2v-4.2H100.9z"/>
	<path class="st0" d="M121.1,9.1h-12.8c-2.5,0-4.4,2-4.4,4.4v12c0,2.5,2,4.4,4.4,4.4h12.8c2.5,0,4.5-2,4.5-4.4v-12
		C125.5,11.1,123.5,9.1,121.1,9.1z M121.3,13.3v12.5H108V13.3H121.3z"/>
	<path class="st0" d="M132.9,25.6V8.9h-4.5v18.3c0,1.6,1.3,2.9,2.9,2.9h17.8v-4.5H132.9z"/>
	<path class="st0" d="M170.2,9.1h-14.5c-2,0-3.6,1.6-3.6,3.6v17.2h4.2v-6.8h13.3v6.8h4.2V12.7C173.8,10.7,172.2,9.1,170.2,9.1z
		 M169.6,13.3v5.7h-13.3v-5.7H169.6z"/>
	<path class="st0" d="M194.2,9.1v16.6h-0.9l-8.1-15.2c-0.5-0.9-1.4-1.4-2.4-1.4h-3.4c-1.5,0-2.7,1.2-2.7,2.7v18.1h4.2V13.3h1.1
		l8.1,15.2c0.5,0.9,1.4,1.5,2.4,1.4h3.2c1.5,0,2.7-1.2,2.7-2.7V9.1H194.2z"/>
	<path class="st0" d="M219.4,9.1h-14.5c-2,0-3.6,1.6-3.6,3.6v17.2h4.2v-6.8h13.3v6.8h4.2V12.7C223,10.7,221.4,9.1,219.4,9.1z
		 M218.8,13.3v5.7h-13.3v-5.7H218.8z"/>
	<path class="st0" d="M100.9,40.6v-4.2H84.5c-2.5,0-4.4,2-4.4,4.4v3.6c0,2.4,2,4.4,4.4,4.4h12.2V53H80.1v4.2h16.4
		c2.5,0,4.4-2,4.4-4.4v-3.6c0-2.4-2-4.4-4.4-4.4H84.2v-4.2H100.9z"/>
	<path class="st0" d="M117.7,36.4h-13.8v20.8h4.2v-7.7h9.7c3.6,0,6.6-2.9,6.6-6.6C124.2,39.3,121.3,36.4,117.7,36.4z M117.7,45.4
		H108v-4.8h9.7c1.3,0,2.4,1.1,2.4,2.4S119,45.4,117.7,45.4z"/>
	<path class="st0" d="M145.2,36.4h-14.5c-2,0-3.6,1.6-3.6,3.6v17.2h4.2v-6.8h13.3v6.8h4.2V40C148.8,38,147.2,36.4,145.2,36.4z
		 M144.7,40.6v5.7h-13.3v-5.7H144.7z"/>
	<path class="st0" d="M159.6,40.6h12.1v-4.2h-13c-3.9,0-7,3.1-7,7v6.9c0,3.9,3.1,7,7,7h13V53h-12.1c-2,0-3.7-1.6-3.7-3.7v-5.1
		C155.9,42.2,157.6,40.6,159.6,40.6z"/>
	<path class="st0" d="M195.1,40.6v-4.2h-20.4v20.8h20.4V53h-16.2v-4.2h16.2v-4.2h-16.2v-4.2H195.1z"/>
	<path class="st0" d="M218.8,40.6v-4.2h-16.4c-2.5,0-4.4,2-4.4,4.4v3.6c0,2.4,2,4.4,4.4,4.4h12.2V53H198v4.2h16.4
		c2.5,0,4.4-2,4.4-4.4v-3.6c0-2.4-2-4.4-4.4-4.4h-12.2v-4.2H218.8z"/>
</g>
</svg>
