<?xml version="1.0" encoding="utf-8"?>
<!-- Generator: Adobe Illustrator 28.0.0, SVG Export Plug-In . SVG Version: 6.00 Build 0)  -->
<!DOCTYPE svg PUBLIC "-//W3C//DTD SVG 1.1//EN" "http://www.w3.org/Graphics/SVG/1.1/DTD/svg11.dtd" [
	<!ENTITY ns_extend "http://ns.adobe.com/Extensibility/1.0/">
	<!ENTITY ns_ai "http://ns.adobe.com/AdobeIllustrator/10.0/">
	<!ENTITY ns_graphs "http://ns.adobe.com/Graphs/1.0/">
	<!ENTITY ns_vars "http://ns.adobe.com/Variables/1.0/">
	<!ENTITY ns_imrep "http://ns.adobe.com/ImageReplacement/1.0/">
	<!ENTITY ns_sfw "http://ns.adobe.com/SaveForWeb/1.0/">
	<!ENTITY ns_custom "http://ns.adobe.com/GenericCustomNamespace/1.0/">
	<!ENTITY ns_adobe_xpath "http://ns.adobe.com/XPath/1.0/">
]>
<svg version="1.1" id="Layer_1" xmlns:x="&ns_extend;" xmlns:i="&ns_ai;" xmlns:graph="&ns_graphs;"
	 xmlns="http://www.w3.org/2000/svg" xmlns:xlink="http://www.w3.org/1999/xlink" x="0px" y="0px" viewBox="0 0 1872.1 467"
	 style="enable-background:new 0 0 1872.1 467;" xml:space="preserve">
<style type="text/css">
	.st0{fill:#8C98A4;}
</style>
<metadata>
	<sfw  xmlns="&ns_sfw;">
		<slices></slices>
		<sliceSourceBounds  bottomLeftOrigin="true" height="461.6" width="1841.6" x="0" y="5.3"></sliceSourceBounds>
	</sfw>
</metadata>
<path class="st0" d="M384.5,0H77.1C34.5,0,0,34.6,0,77.2v307.4c0,42.6,34.5,77.2,77.1,77.2h307.4c42.6,0,77.2-34.6,77.2-77.2V77.2
	C461.7,34.6,427.1,0,384.5,0z M377.7,353.4c0,13.4-10.9,24.4-24.3,24.4H108.3c-13.4,0-24.3-10.9-24.3-24.4V108.3
	C84,94.9,94.9,84,108.3,84h245.1c13.4,0,24.3,10.9,24.3,24.4V353.4z M181.8,293.5c-7.7,0-14-6.3-14-14v-97.8c0-7.8,6.2-14,14-14h98
	c7.7,0,14,6.3,14,14v97.8c0,7.8-6.2,14-14,14H181.8z M584,286.8h50.4c2.5,28.6,21.8,50.8,60.9,50.8c34.9,0,56.3-17.2,56.3-43.3
	c0-24.4-16.8-35.3-47-42.4l-39.1-8.4c-42.4-9.2-74.3-36.5-74.3-81.1c0-49.1,43.7-82.7,100.4-82.7c60.1,0,98.7,31.5,102.1,78.1h-48.7
	C739,136,721,123,691.6,123c-31.1,0-52.5,16.8-52.5,38.2s18.5,34.4,50.4,41.6l38.6,8.4c42.4,9.2,71.4,34.9,71.4,79.8
	c0,57.1-42.8,91.1-104.2,91.1C626.5,382.2,588.2,344.8,584,286.8z M979.8,461.7v-83.6l3.3-36.7h-3.3c-11.5,26.4-35.8,40.8-68.8,40.8
	c-53.1,0-92.7-43.3-92.7-109.6c0-66.3,39.5-109.6,92.7-109.6c32.5,0,55.6,15.2,68.8,39.1h3.3v-35h43.7v294.5H979.8z M981.5,272.6
	c0-42.4-26-67.1-57.7-67.1c-31.7,0-57.7,24.7-57.7,67.1c0,42.4,26,67.1,57.7,67.1C955.5,339.7,981.5,315,981.5,272.6z M1061.7,294.4
	V167.1h47v123.2c0,33.4,16.1,49.4,42.8,49.4c33,0,54.4-23.5,54.4-60.1V167.1h47v210.9h-43.7v-43.7h-3.3c-10.3,28-33,47.8-68,47.8
	C1087.6,382.2,1061.7,350,1061.7,294.4z M1281.5,319.1c0-39.5,27.6-62.6,76.6-65.5l58.1-3.7v-16.5c0-19.8-14.4-31.7-40-31.7
	c-23.5,0-37.5,11.9-41.2,28.8h-47c4.9-42.8,40.4-67.6,88.2-67.6c54,0,86.9,23.1,86.9,67.6v147.5h-43.7v-39.1h-3.3
	c-9.9,26-30.5,43.3-70,43.3C1308.3,382.2,1281.5,356.6,1281.5,319.1z M1416.2,293.2v-11.1l-47.4,3.3c-25.5,1.6-37.1,11.1-37.1,30.1
	c0,16.1,13.2,27.6,31.7,27.6C1396.8,343,1416.2,321.6,1416.2,293.2z M1498.1,378.1V167.1h43.7v40.4h3.3
	c6.2-27.6,27.2-40.4,58.5-40.4h21.4v42.4h-26.8c-30.5,0-53.1,19.8-53.1,57.3v111.2H1498.1z M1839.9,281.2h-160.3
	c2.5,38.7,29.7,60.6,59.7,60.6c25.5,0,41.6-10.3,50.7-27.6h46.6c-12.8,42.8-50.3,68-97.6,68c-62.2,0-105.9-46.6-105.9-109.6
	c0-63,44.9-109.6,106.3-109.6c61.8,0,102.2,42.4,102.2,95.2C1841.6,268.5,1840.8,273.8,1839.9,281.2z M1795,248.7
	c-1.6-29.2-26-49-55.6-49c-28,0-51.5,17.7-57.3,49H1795z"/>
</svg>
