<?xml version="1.0" encoding="utf-8"?>
<!-- Generator: Adobe Illustrator 28.0.0, SVG Export Plug-In . SVG Version: 6.00 Build 0)  -->
<!DOCTYPE svg PUBLIC "-//W3C//DTD SVG 1.1//EN" "http://www.w3.org/Graphics/SVG/1.1/DTD/svg11.dtd" [
	<!ENTITY ns_extend "http://ns.adobe.com/Extensibility/1.0/">
	<!ENTITY ns_ai "http://ns.adobe.com/AdobeIllustrator/10.0/">
	<!ENTITY ns_graphs "http://ns.adobe.com/Graphs/1.0/">
	<!ENTITY ns_vars "http://ns.adobe.com/Variables/1.0/">
	<!ENTITY ns_imrep "http://ns.adobe.com/ImageReplacement/1.0/">
	<!ENTITY ns_sfw "http://ns.adobe.com/SaveForWeb/1.0/">
	<!ENTITY ns_custom "http://ns.adobe.com/GenericCustomNamespace/1.0/">
	<!ENTITY ns_adobe_xpath "http://ns.adobe.com/XPath/1.0/">
]>
<svg version="1.1" id="Layer_1" xmlns:x="&ns_extend;" xmlns:i="&ns_ai;" xmlns:graph="&ns_graphs;"
	 xmlns="http://www.w3.org/2000/svg" xmlns:xlink="http://www.w3.org/1999/xlink" x="0px" y="0px" viewBox="0 0 158.6 66.5"
	 style="enable-background:new 0 0 158.6 66.5;" xml:space="preserve">
<style type="text/css">
	.st0{fill-rule:evenodd;clip-rule:evenodd;fill:#8C98A4;}
</style>
<metadata>
	<sfw  xmlns="&ns_sfw;">
		<slices></slices>
		<sliceSourceBounds  bottomLeftOrigin="true" height="63.1" width="151.6" x="4.2" y="1.2"></sliceSourceBounds>
	</sfw>
</metadata>
<path class="st0" d="M155.8,34.8c0-10.8-5.2-19.3-15.2-19.3c-10,0-16.1,8.5-16.1,19.2c0,12.7,7.2,19.1,17.4,19.1
	c5,0,8.8-1.1,11.7-2.7v-8.4c-2.9,1.4-6.1,2.3-10.3,2.3c-4.1,0-7.7-1.4-8.2-6.4h20.6C155.7,38,155.8,35.8,155.8,34.8z M135,30.8
	c0-4.8,2.9-6.7,5.6-6.7c2.6,0,5.3,2,5.3,6.7H135L135,30.8z M108.3,15.5c-4.1,0-6.8,1.9-8.3,3.3l-0.5-2.6h-9.3v49.1l10.5-2.2l0-11.9
	c1.5,1.1,3.7,2.7,7.5,2.7c7.5,0,14.4-6.1,14.4-19.4C122.6,22.2,115.6,15.5,108.3,15.5L108.3,15.5z M105.7,44.5c-2.5,0-4-0.9-5-2
	l0-15.6c1.1-1.2,2.6-2.1,5-2.1c3.8,0,6.5,4.3,6.5,9.8C112.2,40.3,109.6,44.5,105.7,44.5z M75.7,13l10.6-2.3V2.2L75.7,4.4V13z
	 M75.7,16.2h10.6v36.8H75.7V16.2z M64.4,19.3l-0.7-3.1h-9.1v36.8h10.5v-25c2.5-3.2,6.7-2.7,8-2.2v-9.7
	C71.8,15.7,66.9,14.8,64.4,19.3L64.4,19.3z M43.3,7.1L33,9.3L33,43c0,6.2,4.7,10.8,10.9,10.8c3.5,0,6-0.6,7.4-1.4v-8.5
	c-1.3,0.5-8,2.5-8-3.7V25.2h8v-9h-8C43.3,16.2,43.3,7.1,43.3,7.1z M14.9,26.9c0-1.6,1.3-2.3,3.6-2.3c3.2,0,7.2,1,10.4,2.7v-9.9
	c-3.5-1.4-6.9-1.9-10.4-1.9C9.9,15.5,4.2,20,4.2,27.4c0,11.6,16,9.8,16,14.8c0,1.9-1.7,2.6-4,2.6c-3.5,0-8-1.4-11.5-3.4v10
	c3.9,1.7,7.9,2.4,11.5,2.4c8.8,0,14.8-4.3,14.8-11.9C30.9,29.4,14.9,31.6,14.9,26.9L14.9,26.9z"/>
</svg>
